<svg preserveAspectRatio="xMidYMid meet" overflow="visible" style="display: block;" viewBox="0 0 162.501 162.045" fill="none" xmlns="http://www.w3.org/2000/svg">
<path id="apply-style-here" d="M1.25027 113.787L53.2503 87.7872C69.2503 79.7872 74.2503 74.7872 74.2503 59.7872M1.25027 121.787L11.8503 116.487C12.5503 116.187 13.2503 116.687 13.2503 117.387V158.787C13.2503 159.987 14.2503 160.887 15.3503 160.787C25.3503 159.887 33.2503 153.087 33.2503 144.887C33.2503 142.487 31.0503 140.487 28.5503 140.987C26.6503 141.287 25.2503 143.087 25.2503 145.087C25.3503 153.287 33.1503 159.987 43.0503 160.787C44.2503 160.887 45.2503 159.987 45.2503 158.787V101.687C45.2503 100.587 45.8503 99.4872 46.9503 98.9872L55.2503 94.7872C73.2503 85.7872 79.4503 85.1872 91.4503 94.1872M161.25 63.7872L109.25 37.7872C93.2503 29.7872 88.2503 24.7872 88.2503 9.78724M161.25 71.7872L150.65 66.4872C149.95 66.1872 149.25 66.6872 149.25 67.3872V108.787C149.25 109.987 148.25 110.887 147.15 110.787C137.15 109.887 129.25 103.087 129.25 94.8872C129.25 92.4872 131.45 90.4872 133.95 90.9872C135.85 91.2872 137.25 93.0872 137.25 95.0872C137.15 103.287 129.35 109.987 119.45 110.787C118.25 110.887 117.25 109.987 117.25 108.787V51.5872C117.25 50.4872 116.65 49.3872 115.55 48.8872L107.25 44.6872C89.2503 35.6872 83.0503 35.0872 71.0503 44.0872M99.2771 68.7983C105.353 80.9498 105.793 93.043 100.261 95.8092C94.7286 98.5754 85.3183 90.9671 79.2426 78.8156C73.1668 66.6641 72.7263 54.5709 78.2587 51.8047C83.7911 49.0385 93.2014 56.6468 99.2771 68.7983ZM84.2929 1.82179C89.8253 4.58799 89.3848 16.6812 83.3091 28.8327C77.2333 40.9842 67.823 48.5925 62.2907 45.8263C56.7583 43.0601 57.1987 30.9669 63.2745 18.8154C69.3502 6.6639 78.7605 -0.944401 84.2929 1.82179Z" stroke="url(#paint0_linear_0_4)" stroke-width="2.5" stroke-miterlimit="10" stroke-linecap="round" stroke-linejoin="round"/>
<defs>
<linearGradient id="paint0_linear_0_4" x1="81.2503" y1="1.25396" x2="81.2503" y2="160.795" gradientUnits="userSpaceOnUse">
<stop stop-color="#93C437"/>
<stop offset="1" stop-color="#279BE8"/>
</linearGradient>
</defs>
</svg>
